<?xml version="1.0" encoding="utf-8"?>
<!-- Generator: Adobe Illustrator 26.3.1, SVG Export Plug-In . SVG Version: 6.00 Build 0)  -->
<svg version="1.1" id="Logo" xmlns="http://www.w3.org/2000/svg" xmlns:xlink="http://www.w3.org/1999/xlink" x="0px" y="0px"
	 viewBox="0 0 576.6 87.6" style="enable-background:new 0 0 576.6 87.6;" xml:space="preserve">
<style type="text/css">
	.st0{fill:#1E2B38;}
	.st1{fill:#00B55A;}
	.st2{fill:#01D468;}
</style>
<g>
	<path class="st0" d="M218.9,39.9h-26.2c-7.1,0-12.9-5.8-12.9-12.9c0-7.1,5.8-12.9,12.9-12.9H231v-9h-38.3
		c-12.1,0-21.9,9.8-21.9,21.8s9.8,21.8,21.9,21.8h26.2c7.1,0,12.9,5.8,12.9,12.9c0,7.1-5.8,12.9-12.9,12.9h-47v9h47
		c12.1,0,21.9-9.8,21.9-21.8C240.8,49.7,231,39.9,218.9,39.9z"/>
	<path class="st0" d="M542.8,13.4c15.7,0,24.8,10.6,24.8,29.1V83h9V42.5c0-23.9-12.3-37.7-33.8-37.7c-21.5,0-33.8,13.7-33.8,37.7V83
		h9V42.5C518,24,527.1,13.4,542.8,13.4z"/>
	<path class="st0" d="M291,84.2c16.8,0.4,26.7-3.6,28.4-4.4V72c-2.4,0.9-11.3,3.8-24.2,3.8h0c-1.4,0-2.8,0-4.2-0.1
		c-16.5-0.8-29-12.6-29.6-28l0-0.5H330c0.1-0.6,0.1-1.4,0.1-2.3v-1.4c-0.6-22-17.4-38.6-39.1-38.6c-0.3,0-0.5,0-0.8,0
		c-10,0-19.4,4.1-26.7,11.4c-7.5,7.6-11.7,18-11.6,28.4C252,66.3,269.1,83.7,291,84.2z M271.6,20.8c5.6-4.9,12.2-7.4,19.6-7.4
		c7.4,0,13.9,2.5,19.3,7.4c5.4,5,8.7,11,10,18.3l0.1,0.6h-59.2l0.1-0.6C262.7,31.8,266.1,25.6,271.6,20.8z"/>
	<path class="st0" d="M458.7,84.2c16.8,0.4,26.7-3.6,28.4-4.4V72c-2.4,0.9-11.3,3.8-24.2,3.8h0c-1.4,0-2.8,0-4.2-0.1
		c-16.5-0.8-29-12.6-29.6-28l0-0.5h68.6c0.1-0.6,0.1-1.4,0.1-2.3v-1.4c-0.6-22-17.4-38.6-39.1-38.6c-0.3,0-0.5,0-0.8,0
		c-10,0-19.4,4.1-26.7,11.4c-7.5,7.6-11.7,18-11.6,28.4C419.6,66.3,436.8,83.7,458.7,84.2z M439.2,20.8c5.6-4.9,12.2-7.4,19.6-7.4
		c7.4,0,13.9,2.5,19.3,7.4c5.4,5,8.7,11,10,18.3l0.1,0.6H429l0.1-0.6C430.4,31.8,433.8,25.6,439.2,20.8z"/>
	<path class="st0" d="M375.8,83c4.8-0.1,9.1-3,10.9-7.4L417,6.1h-10.5L378,72.5c-0.5,1.2-1.5,1.9-2.6,1.9c-0.9,0-1.8-0.6-2.4-1.7
		L344.4,6.1h-10.1l30.2,70.1C366.7,80.5,371,83.1,375.8,83z"/>
</g>
<g>
	<path class="st1" d="M2.2,4.6l61.1,19.5l0.5-0.5c1-1,5.7-12.8,5.5-15.1C69.1,4.6,64,0.4,55,0.4H2.5C1.2,0.4,0.2,1,0,2
		C-0.1,2.6,0.1,3.8,2.2,4.6z"/>
	<path class="st2" d="M131.8,2.2c-0.4-1.2-1.8-1.8-4.2-1.8H45l9.7,2.3c5.7,1.4,9.6,3.9,10.9,7c0.7,1.6-1.1,4.9-4.4,9.9l-0.7,1
		c-0.6,0.9-14.7,19.1-21.5,27.8L11.8,83.2c-0.8,0.9-1,1.9-0.5,2.9c0.4,0.9,1.3,1.5,2.4,1.5c0.6,0,1.3-0.2,1.8-0.6L130,5.5
		C131.5,4.4,132.2,3.3,131.8,2.2z"/>
</g>
</svg>
